<svg width="176" height="241" viewBox="0 0 176 241" fill="none" xmlns="http://www.w3.org/2000/svg">
<path d="M173.85 118.461L61.8499 238.461C60.663 239.728 59.0963 240.574 57.3863 240.872C55.6763 241.17 53.9157 240.904 52.3701 240.114C50.8246 239.323 49.5781 238.052 48.8186 236.491C48.0591 234.93 47.8279 233.165 48.1599 231.461L62.8199 158.131L5.18988 136.491C3.9522 136.028 2.84847 135.266 1.97731 134.272C1.10615 133.278 0.494683 132.084 0.197546 130.797C-0.0995917 129.509 -0.0731471 128.168 0.274515 126.893C0.622177 125.618 1.28023 124.449 2.18988 123.491L114.19 3.49086C115.377 2.22422 116.943 1.37798 118.653 1.07983C120.363 0.781691 122.124 1.04783 123.67 1.83808C125.215 2.62833 126.462 3.89982 127.221 5.46068C127.981 7.02154 128.212 8.78707 127.88 10.4909L113.18 83.9009L170.81 105.511C172.038 105.977 173.133 106.738 173.998 107.728C174.862 108.718 175.469 109.905 175.766 111.185C176.062 112.465 176.039 113.799 175.698 115.068C175.357 116.337 174.708 117.502 173.81 118.461H173.85Z" fill="#00B8FF"/>
</svg>
