<svg width="200" height="222" viewBox="0 0 200 222" fill="none" xmlns="http://www.w3.org/2000/svg">
<path d="M100.016 115.279C131.73 115.279 157.655 89.354 157.655 57.6395C157.655 25.9251 131.73 0 100.016 0C68.3012 0 42.3766 25.9251 42.3766 57.6395C42.3766 89.354 68.3016 115.279 100.016 115.279ZM198.934 161.34C197.424 157.565 195.411 154.041 193.145 150.769C181.567 133.653 163.697 122.326 143.56 119.558C141.044 119.306 138.275 119.809 136.261 121.32C125.69 129.122 113.105 133.149 100.016 133.149C86.9274 133.149 74.3426 129.122 63.7711 121.32C61.7573 119.809 58.9885 119.054 56.4718 119.558C36.3357 122.326 18.2134 133.653 6.88694 150.769C4.62165 154.041 2.60785 157.817 1.09798 161.34C0.343043 162.851 0.594527 164.612 1.34946 166.123C3.36326 169.646 5.88003 173.171 8.14532 176.191C11.669 180.973 15.4446 185.252 19.7237 189.279C23.2474 192.803 27.2745 196.075 31.3021 199.347C51.1862 214.198 75.098 222 99.7646 222C124.431 222 148.343 214.197 168.227 199.347C172.254 196.327 176.281 192.803 179.806 189.279C183.833 185.252 187.86 180.973 191.384 176.191C193.901 172.919 196.167 169.646 198.18 166.123C199.438 164.612 199.689 162.85 198.934 161.34Z" fill="#00B8FF"/>
</svg>
